<?xml version="1.0" encoding="iso-8859-1"?>
<!-- Generator: Adobe Illustrator 18.1.1, SVG Export Plug-In . SVG Version: 6.00 Build 0)  -->
<svg version="1.1" id="Capa_1" xmlns="http://www.w3.org/2000/svg" xmlns:xlink="http://www.w3.org/1999/xlink" x="0px" y="0px"
	 viewBox="0 0 268.133 268.133" style="enable-background:new 0 0 268.133 268.133;" xml:space="preserve">
<g>
	<path style="fill:#010002;" d="M113.573,9.44h40.98c12.697,0,23.354,8.891,26.075,20.777H87.498
		C90.213,18.33,100.882,9.44,113.573,9.44z"/>
	<path style="fill:#010002;" d="M0,42.15h80.863H187.27h80.863v102.308H153.957v-5.859c0-3.3-2.667-5.967-5.967-5.967h-27.847
		c-3.3,0-5.967,2.667-5.967,5.967v5.854H0V42.15z"/>
	<polygon style="fill:#010002;" points="126.11,150.419 126.11,144.565 142.023,144.565 142.023,150.419 142.023,165.467 
		126.11,165.467 	"/>
	<path style="fill:#010002;" d="M268.133,258.694H0V156.386h114.176v15.042c0,3.3,2.667,5.967,5.967,5.967h27.847
		c3.3,0,5.967-2.667,5.967-5.967v-15.042h114.176V258.694z"/>
</g>
<g>
</g>
<g>
</g>
<g>
</g>
<g>
</g>
<g>
</g>
<g>
</g>
<g>
</g>
<g>
</g>
<g>
</g>
<g>
</g>
<g>
</g>
<g>
</g>
<g>
</g>
<g>
</g>
<g>
</g>
</svg>
